.
 
http://www.scenetime.com    -  Hottest private tracker on the net. !!!

Sign up will close shortly !!  Join now 

        Seed back for speed


...................................NFO:.................................................








































          
          
              
              
                    
                    
                    
                    

Attack.The.Block.2011.DVDRiP.XviD.AC3-SiC

Poster:
[img]http://img163.imageshack.us/img163/3277/attacktheblock.jpg[/img]

IMDB Link: 
http://www.imdb.com/title/tt1478964/

Description:
A teen gang in South London defend their block from an alien invasion..  

MediaInfo:
General
Complete name                    : Attack.The.Block.2011.DVDRiP.XviD.AC3-SiC.avi
Format                           : AVI
Format/Info                      : Audio Video Interleave
File size                        : 1.67 GiB
Duration                         : 1h 24mn
Overall bit rate                 : 2 834 Kbps

Video
ID                               : 0
Format                           : MPEG-4 Visual
Format profile                   : Advanced Simple@L5
Format settings, BVOP            : 1
Format settings, QPel            : No
Format settings, GMC             : No warppoints
Format settings, Matrix          : Default (H.263)
Codec ID                         : XVID
Codec ID/Hint                    : XviD
Duration                         : 1h 24mn
Bit rate                         : 2 378 Kbps
Width                            : 720 pixels
Height                           : 304 pixels
Display aspect ratio             : 2.35:1
Frame rate                       : 25.000 fps
Color space                      : YUV
Chroma subsampling               : 4:2:0
Bit depth                        : 8 bits
Scan type                        : Progressive
Compression mode                 : Lossy
Bits/(Pixel*Frame)               : 0.435
Stream size                      : 1.40 GiB (84%)
Writing library                  : XviD 1.2.1 (UTC 2008-12-04)

Audio
ID                               : 1
Format                           : AC-3
Format/Info                      : Audio Coding 3
Mode extension                   : CM (complete main)
Codec ID                         : 2000
Duration                         : 1h 24mn
Bit rate mode                    : Constant
Bit rate                         : 448 Kbps
Channel(s)                       : 6 channels
Channel positions                : Front: L C R, Side: L R, LFE
Sampling rate                    : 48.0 KHz
Bit depth                        : 16 bits
Compression mode                 : Lossy
Stream size                      : 270 MiB (16%)
Alignment                        : Aligned on interleaves
Interleave, duration             : 64 ms (1.60 video frames)
Interleave, preload duration     : 192 ms
Title                            : VTS_30_1 T80 3_2ch 448Kbps DELAY 0ms

Screenshots:
[img]http://img263.imageshack.us/img263/6452/vlcsnap2011090314h27m27.png[/img]
[img]http://img17.imageshack.us/img17/4817/vlcsnap2011090314h31m51.png[/img]
[img]http://img155.imageshack.us/img155/5704/vlcsnap2011090314h32m33.png[/img]
[img]http://img690.imageshack.us/img690/7711/vlcsnap2011090315h28m41.png[/img]
[img]http://img849.imageshack.us/img849/5932/vlcsnap2011090315h52m14.png[/img]


Note : Yes I know there's ninety versions of this already, but this was such a damn good movie that we wanted one of our own. Download it or don't. 

Source: PAL DVDR Legend-RG(Thanks!)

Enjoy!

Respects to CaptainHomey, Cyanide, CM8, Rx, THC, ELEKTRI4KA, 
Killerhz, PA, YeFsTe, BoxSlots, MrRep and everyone in the struggle...